<?xml version="1.0" encoding="UTF-8"?>
<svg id="Calque_2" data-name="Calque 2" xmlns="http://www.w3.org/2000/svg" viewBox="0 0 717.23 707.37">
  <defs>
    <style>
      .cls-1 {
        fill: #e5ecfe;
      }

      .cls-2 {
        fill: #2563eb;
      }

      .cls-3 {
        fill: #fefefe;
      }
    </style>
  </defs>
  <g id="Calque_1-2" data-name="Calque 1">
    <g>
      <path class="cls-1" d="M683.6,272.14c.65.87,4.19,2.33,5.72,3.78,20.81,19.74,35.74,38.73,23.47,69.49-3.12,7.81-15.34,18.59-16.27,21.73-1.63,5.51-.49,26.58-1.21,34.79-8.15,92.34-51.18,172.35-119.47,233.53-14.21,12.73-56.13,44.16-74.04,45.96-4.2.42-8.54-.46-12.75.25-8.48,1.43-23.86,8.73-33.52,11.48-65.1,18.53-145.98,19.15-211.18.75-10.2-2.88-24.03-10.23-32.97-12.03-13.78-2.77-18.04-.32-32.74-7.26-51.72-24.43-108.08-86.89-135.49-136.51-109.37-197.91-1.17-451.58,216.16-509.18,10.5-2.78,24.44-3.88,34.03-6.97,14.57-4.7,30.64-18.96,46.72-21.28,30.56-4.41,44.11,14.22,69.27,22.25,13.04,4.16,28.93,5.64,42.99,10.01,99.36,30.88,179.74,107.33,218.77,203.23,2.53,6.21,10.52,33.27,12.53,35.98ZM413.31,31.43c-17.08-8.33-35-20-53.32-24.02-.82-.18-.26-1.82-2.12-2.06-24.35-3.2-49.97,15.96-70.57,26.08l-.98-2.28c.27,2.29-1.83.03-4.23.46-68.71,12.39-142.57,56.39-188.31,108.81-126.2,144.65-115.63,358.06,26.5,487.53,18.25,16.63,58.41,47.24,82.64,50.36,11.87,1.53,11.74,1.45,22.85,5.15,70.81,23.58,149.36,27.05,221.74,7.69,18.98-5.08,29.85-10.41,50.01-12.99,30.71-3.94,86.56-54.16,107.29-77.71,56.59-64.28,86.12-147.18,86.49-233.01,32.11-34.25,24.43-67.35-14-92-24.42-84.95-81.98-161.81-159.33-205.17-27.23-15.27-68.6-33.27-99.46-37.56-1.6-.22-4.21-1.07-5.22.74Z"/>
      <path class="cls-2" d="M287.31,31.43c-27.15,13.34-54.39,26.71-81.64,39.86-15.61,7.53-54.17,21.02-62.77,34.23-5.47,8.41-6.74,21.1-1.59,29.91.02,1.98-1.35,2.77-2.48,4.02-8.4,9.25-17.92,17.35-26.04,26.97C6.39,292.46,13.85,472.69,129.26,589.98c3.9,3.97,8.71,7.94,13.05,11.45v-288.5c0-4.58,6.01-12.14,10-14.5-.23,9.87-1.51,32.34.68,40.82.79,3.05,4.27,8.32,6.81,10.19,1.51,1.12,8.61,3.99,10.01,3.99h85.5v16h-84v282.5c0,.44,2.59,5.97,3.16,6.84,4.02,6.14,11.42,7.19,18.3,7.7,36.9,2.75,77.59-1.5,115.08-.08,11.97.45,25.32,2.85,35.9,2.98,18.38.23,35.11-2.27,53.01-2.98,28.14-1.11,59.56,2.45,87.08.08,10.68-.92,15.41-4.72,16.45-15.55l.22-91.78c10.22-10.6,20.5-21.19,30.8-31.7l1.01,93.99c.69.79,5.49-3.31,6.46-4.03,4.37-3.29,9.47-7.74,13.55-11.45,58.9-53.49,98.02-125.36,104.99-205.51,10.94-11.12,23.46-23.76,34-35-.37,85.83-29.9,168.74-86.49,233.01-20.73,23.55-76.58,73.77-107.29,77.71-20.16,2.59-31.03,7.92-50.01,12.99-72.38,19.36-150.93,15.89-221.74-7.69-11.11-3.7-10.98-3.62-22.85-5.15-24.23-3.12-64.38-33.74-82.64-50.36C-21.83,496.47-32.4,283.07,93.8,138.41c45.73-52.42,119.6-96.41,188.31-108.81,2.4-.43,4.5,1.82,4.23-.46l.98,2.28Z"/>
      <path class="cls-2" d="M677.31,273.43c-10.49-6.73-23.22-11.87-36-10-18.23-48.35-47.16-92.8-86-127,1.48-7.51,4.71-16.52,2.98-24.3-.18-.82-1.62-.79-1.95-1.43-7.06-13.56-12.66-15.44-25.67-22.13-38.57-19.83-78.36-38.12-117.36-57.14,1.01-1.8,3.62-.96,5.22-.74,30.85,4.29,72.22,22.3,99.46,37.56,77.35,43.37,134.91,120.22,159.33,205.17Z"/>
      <path class="cls-1" d="M141.31,135.43c3.74,6.39,15.17,13.09,22.18,15.32,1.55.49,5.73.47,5.86,1.25.78,3.71-1.14,7.58-1.12,10.94.16,29.44,3.48,60.51,1.07,89.98-.95,11.59-3.53,8.44-9.5,15.5-7.96,9.42-7.23,18.62-7.49,30.01-3.99,2.36-10,9.92-10,14.5v288.5c-4.34-3.51-9.15-7.48-13.05-11.45C13.85,472.69,6.39,292.46,112.8,166.41c8.11-9.61,17.63-17.71,26.04-26.97,1.13-1.24,2.5-2.04,2.48-4.02ZM162.31,182.43c-2.8-1.25-9.04-.32-11.01-1.49s-3.41-8.97-6.48-10.5c-1.55.03-4.93,10.36-5.66,10.82-1.37.86-5.95-.32-8.17.19-.69.16-.66,1.58-.89,1.69-.27.14-3.98-2.09-.83,2.83,1.45,2.27,6.42,4.2,6.9,6.14.64,2.55-3.13,8.84-1.85,12.32.61.81,9.66-5.6,10.5-5.65,1.74-.11,9.97,5.66,11,5.63,1.84-.05.86-2.11.82-2.77-.21-3.19-2.02-7.55-1.14-10.49.61-2.04,8.23-7.13,6.81-8.71ZM137.48,236.26c-.72-.44-5.42-12.66-7.32-15.18-.59-.78-1.63-2.55-2.83-1.65s-5.24,14.93-7.04,16.47c-2.64,2.25-13.04,1.55-16.98,2.53-2.33,4.79,10.72,12.39,11.04,13.71.9,3.64-3.73,17.68-3.03,18.28,4.43,1.32,13.51-7.83,16.31-7.78,2.52.05,17.09,9.58,17.67,8.78,1.64-5.37-4.07-14.83-3.04-19.29.24-1.03,13.53-9.6,12.05-13.7-.95-1.13-15.05-1.09-16.84-2.18ZM134.3,325.45c-2.12-3.02-23.14-1.76-26-3.51s-9.39-23.43-11.95-25.05c-3.59-2.27-2.81,1.03-3.83,3.22-1.41,3.03-9.17,21.19-10.17,21.86-2.09,1.42-7.33,1.53-10.04,2.2-.77.19-.96.17-1.66.3-1.84.34-3.93-1.1-5.84-1.03-1.27.05-9.23,1.61-9.5,2.01-.61.89.34,2.61.95,3.54,3.33,5.15,13.46,12.5,18.12,17.14l-6.06,28.31c3.59,3.03,22.83-13.08,26.5-12.96,3.4.11,23.55,15.9,26.49,12.97.44-9.78-4.63-18.72-5.84-28.3.65-2.72,15.15-12.91,17.89-17.15.6-.93,1.56-2.64.94-3.53ZM105.45,415.35c-2.1-1.51-6.59-15.16-8.93-18.62-.71-1.05-.97-2.48-2.7-2.31l-9.67,19.85-18.85,1.17c-3.04,3.08,11.99,13.92,12.82,16.71,1.18,3.96-4.15,18.88-2.81,20.28,4.05.73,16.77-10.02,18.48-10.01,2.58,0,17.63,11.98,19.51,10.01,1.38-5.27-4.58-16.15-3.76-20.38.52-2.65,16.42-14.05,13.77-16.61-3.6-.03-6.86-.97-10.5-1.07-2.02-.06-7.06,1.2-7.37.98ZM121.93,510.06c1.42-1.74,2.5-3.72,4.36-5.13.03-2.17-9.44-2.08-10.99-2.99-1.97-1.17-3.92-9.65-6.51-11.5-2.04-.47-1.35.84-1.97,1.97-1.12,2.03-3.62,8.71-4.55,9.5-2.5,2.15-11.89.74-11.95,3.02.49,3.27,7.32,6.6,7.86,8.18.91,2.68-2.04,8.87-.88,12.32,3.9.93,8.55-5.06,11.5-4.96,1.29.04,11.1,6.49,11.48,5.97,1.35-3.81-2.05-9.46-1.72-12.37.29-2.62,2.35-2.76,3.36-4Z"/>
      <path class="cls-1" d="M555.31,136.43c38.84,34.2,67.77,78.65,86,127-18.69,2.73-48.33,40.17-61.95,54.57-6.78,7.16-18.99,16.54-24.46,25.51-1.95,3.2-2.66,7.71-5.04,10.96-.81,1.11-10.95,11.2-12.03,11.96-1.67,1.18-3.55,1.64-5.51,1.99.91-13.26,1.45-38.67,0-51.5-1.28-11.4-10.56-18.41-21.51-19.49-17.26-1.71-39.58.09-57.49,0,1.15-6.98,1.67-14.06,0-21h-17.5c-1.46,0-2.47-5.27-.56-6.56,1.46-.98,15.64-1.78,21.39-4.61,32.53-16,27.38-49.03,26.63-79.28-.08-3.22-.41-20.33.48-21.6,11.3-2.56,22.96-9.51,34.41-10.75,1.5-.16,1.91.77,2.15.81-.88,2.46-6.35,18.22-7.11,18.88s-7.48-.21-9.46.03c-2.46.3.94,1.17-4.98.99-1.66-.05-1.41,1.44-1.51,1.47-1.21.37-1.87-.46-1.93-.38-2.31,3.37,11.16,11.75,11.83,13.67,1.22,3.51-2.23,13.46-2.79,17.91-.19,1.5-.19,1.69,1.45,1.44,4.71-.72,12.09-7.94,16-7.94,2.7,0,16.52,9.02,17.49,7.92,1.67-5.06-4.23-15.27-2.87-19.32.29-.87,11.6-10.78,12.87-13.18-3.2-3.35-16.13-1.59-17.84-2.66-.96-.6-6.82-16.54-9.16-18.84.21-.19-.22-2.03,1.66-2.81,4.91-2.05,12.44-2.9,18.08-5.91,4.37-2.33,8.66-8.32,13.26-9.28ZM610.31,247.43l-23.02-2.49c-1.87-1.13-6.8-17.02-9.08-19.91-1.56-1.98-3.77-2.75-5.19-.36-1.69,2.84-7.92,20-8.86,20.6-7.98.13-16,.53-23.84,2.18-.31,1.53.16,2.33.95,3.54,2.3,3.55,15.26,13.49,15.89,16.15.88,3.69-5.91,18.9-4.84,24.3,1.75,1.8,19.48-10.31,22.5-11.67,3.23,1.32,21.85,13.33,23.49,11.67.84-5.59-5.93-21.22-4.85-25.27.32-1.2,10.04-9.51,11.84-11.52.87-.97,5.74-6.4,5.01-7.2Z"/>
      <path class="cls-1" d="M657.31,400.43c-6.97,80.15-46.09,152.03-104.99,205.51-4.08,3.7-9.18,8.15-13.55,11.45-.96.73-5.77,4.83-6.46,4.03l-1.01-93.99c2.71-2.77,3.94-3.56,3.94-3.56,0,0,11.32-10.92,14.57-14.43,35.29-38.08,71.93-72.9,107.49-109.01ZM590.44,490.25c-.5-.44.78.14-.91.56,1.14,3.46-1.45,1.23-2.09,2.44s-2.95,6.8-3.28,7c-1.62,1.03-11.75-1.53-10.83,2.65.31,1.39,7.36,6.16,7.84,8.21.74,3.19-5.19,11.4,3.44,9.1,2.28-.61,3.64-3.02,6.14-2.81,3.23.27,7.72,5.63,11.58,5.01,1.08-1.12-2.17-10.35-1.77-12.39.46-2.37,9.13-5.09,7.77-9.6-2.85-.94-7.71,1.94-9.98.53s-5.22-8.26-6.73-10.64c-.56-.88-.78.26-1.15-.06ZM567.2,524.54c-3.29-2.1-3.8,3.82-5.04,6.24-4.48,8.75-6.38,6.51-15.85,7.65-.83,3.73,8.89,10.01,9.05,10.7.84,3.66-3.23,10-2.04,14.29,3.67,1.26,10.21-5.64,11.64-5.89.98-.17,9.92,5.89,12.32,6.47,1.01.24,1.96-.53,2.01-1.06.19-2.27-3.19-10.54-2.73-12.9.37-1.91,9.73-9.18,9.74-10.11-5.04-1-10.32-1.37-12.99-2.99-1.73-1.04-5.48-12.01-6.1-12.4Z"/>
      <path class="cls-2" d="M522.31,154.43c2.34,2.29,8.2,18.23,9.16,18.84,1.7,1.07,14.64-.69,17.84,2.66-1.27,2.41-12.58,12.31-12.87,13.18-1.36,4.05,4.54,14.26,2.87,19.32-.98,1.1-14.79-7.92-17.49-7.92-3.91,0-11.29,7.23-16,7.94-1.64.25-1.64.06-1.45-1.44.56-4.45,4.01-14.39,2.79-17.91-.67-1.93-14.14-10.3-11.83-13.67.06-.08.72.75,1.93.38.1-.03-.15-1.52,1.51-1.47,5.93.19,2.52-.69,4.98-.99,1.99-.24,8.67.66,9.46-.03s6.23-16.43,7.11-18.88c.45.06,1.93.07,2,0Z"/>
      <g>
        <path class="cls-3" d="M531.31,527.43c-10.29,10.52-20.58,21.1-30.8,31.7l-.22,91.78c-1.03,10.84-5.76,14.63-16.45,15.55-27.52,2.37-58.94-1.19-87.08-.08-17.9.71-34.64,3.21-53.01,2.98-10.58-.13-23.93-2.53-35.9-2.98-37.49-1.42-78.18,2.83-115.08.08-6.88-.51-14.28-1.56-18.3-7.7-.57-.87-3.16-6.4-3.16-6.84v-282.5h84v-16h-85.5c-1.39,0-8.49-2.88-10.01-3.99-2.54-1.87-6.02-7.14-6.81-10.19-2.19-8.48-.91-30.95-.68-40.82.26-11.39-.47-20.59,7.49-30.01,5.96-7.06,8.55-3.91,9.5-15.5,2.41-29.47-.92-60.54-1.07-89.98-.02-3.36,1.9-7.23,1.12-10.94-.13-.78-4.31-.75-5.86-1.25-7.01-2.23-18.44-8.93-22.18-15.32-5.16-8.82-3.88-21.5,1.59-29.91,8.6-13.21,47.16-26.7,62.77-34.23,27.25-13.14,54.49-26.52,81.64-39.86,20.6-10.12,46.22-29.27,70.57-26.08,1.86.24,1.3,1.88,2.12,2.06,18.31,4.02,36.24,15.69,53.32,24.02,39,19.02,78.79,37.31,117.36,57.14,13.01,6.69,18.61,8.57,25.67,22.13.33.64,1.77.61,1.95,1.43,1.73,7.78-1.51,16.79-2.98,24.3-4.6.96-8.89,6.95-13.26,9.28-5.65,3.01-13.18,3.86-18.08,5.91-1.87.78-1.44,2.62-1.66,2.81-.07.07-1.55.06-2,0-.24-.03-.66-.97-2.15-.81-11.45,1.24-23.1,8.18-34.41,10.75-.9,1.27-.56,18.38-.48,21.6.74,30.26,5.9,63.28-26.63,79.28-5.74,2.83-19.93,3.62-21.39,4.61-1.91,1.29-.9,6.56.56,6.56h17.5c1.67,6.94,1.15,14.02,0,21-2.89-.02-19.31.73-20.01,0-.43-.45.73-3.54-.49-4-4.68,7.92-11.16,13.2-18.5,18.5v42.5h-128v-43.5c-7.69-5.02-14.48-11.07-18.5-19.5l.5,5.99c-6.99.01-14.01,0-21,0v-21h15.5c1.38,0,3.21-4.39,2.51-6-18.36-.55-36.46-10.12-44.71-26.79-4.77-9.64-4.91-21-5.33-31.67-.6-15.3.53-30.74.04-46.06l-2-1.48c-.01,18.83-.02,37.69.04,56.54.01,4.35-.04,8.54,0,12.92.04,5.19-1.03,24.19.89,27.11,1.07,1.63,5.61,4.17,7.64,6.39,4.16,4.56,11.65,25.32,8.44,30.04-.07.11-1.39-.26-1.78.18-.85.95.74,5.31.82,7.28.24,6.16-1.05,15.55-.04,21.04.15.83.8,2.5,1.5,2.5h36c.5,0,2.1-1.58,3.5-1v35.5c0,8.52,9.38,18.93,18.46,18.54l124.98-.1c5.75-1.66,10.77-5.16,13.31-10.69.39-.84,2.26-6.39,2.26-6.74v-36.5h69.5c2.09,0,1.5,4.51,1.5,5.5v19c0,1.1-2.44,1.43-3.45,1.55-16.83,1.98-35.6-2.55-52.55-.05v16h56l-1.01,36.49c2.06,2.04,2.13-1.12,3.45-2.51,9.42-9.9,18.94-19.77,28.62-29.43,1.45-1.67.82-3.65.95-5.55,1.96-.35,3.84-.82,5.51-1.99,1.08-.76,11.22-10.85,12.03-11.96,2.38-3.25,3.09-7.76,5.04-10.96,5.47-8.97,17.69-18.35,24.46-25.51,13.62-14.4,43.27-51.84,61.95-54.57,12.78-1.87,25.51,3.27,36,10,38.43,24.65,46.11,57.75,14,92-10.54,11.24-23.06,23.88-34,35-35.55,36.12-72.2,70.93-107.49,109.01-3.25,3.51-12.79,11.34-14.57,14.43M169.31,285.93v48.5h44v-48.5c0-5.27-10.06-14.45-15.04-16.17l.04-123.83c.52-4.88,3.52-9.78,7.94-12.06,41.43-10.71,83.56-18.44,125.34-27.66,4.81-2.31,6.21-8.72,2.44-12.5-5.72-5.73-26.01,3-33.71,3.72-2.35-2.65,6.55-11.31,8.52-12.97,18.38-15.44,50.92-15.78,72.91-8.97,12.65,3.92,23.25,11.56,11.59,24.46-8.91,9.85-26.01,16.3-38.77,19.23-5.19,1.19-6.92,1.42-11.76,1.25-7.31-.26-12.59,1.16-19.46,2.45-9.26,1.73-19.39,4.14-27.26,5.79-25.95,5.44-51.74,11.71-77.77,16.77.15,1.56,1.52,1.51,2.56,1.92,15.66,6.17,31.99,11.09,47.7,17.3,21.48,8.48,47.31,22.02,68.78,28.22,14.13,4.08,22.37-.06,35.2-4.7,36.02-13.04,70.94-29.27,107.23-41.77,10.43-3.59,52.26-14.53,57.41-19.59,9.14-8.96-3.06-14.98-10.02-18.77-45.7-24.93-98.57-49.54-145.85-72.15-6.99-3.34-24.65-12.68-31.49-12.5s-21.6,7.72-28.22,10.85c-28.89,13.66-57.17,29.11-85.96,43.04-22.27,10.77-53.51,21.88-73.61,34.39-6.2,3.86-8.59,11.78-2.27,16.77,3.56,2.81,25.36,8.16,25.59,9.59l-2.11,9.85.04,121.04c-.47,2.47-6.58,5.1-8.98,8.02-1.2,1.46-4.75,7.51-5.02,8.98ZM466.31,170.43c-30.43,10.45-59.57,24.71-89.73,35.77-16.38,6.01-24.35,9.85-42.23,4.69-30.79-8.89-64.78-28.24-95.77-39.23-1.72-.61-3.37-1.42-5.27-1.23v56.5c0,2.41,4.67,10.28,6.49,12.51,10.47,12.85,26.01,14.42,41.52,11.98-2.72,16.33,15.02,7.31,15.96,8.01.22.17,1.01,3.26,2.51,5.02,21.63,25.27,86.05,6.46,109.44-10.61,2.02-1.47,5.05-5.73,6.8-6.25,2.86-.84,9.42,2.53,13.74,2.87,15.97,1.25,36.54-9.44,36.54-27.53v-52.5ZM477.96,558.08c64-67.38,131.86-131.44,195.38-199.13,16.7-17.8,32.4-32.99,11.94-57-13.24-15.54-36.6-31.96-54.98-14.04-19.6,22.02-42.13,41.66-61.05,64.07l2.08,4.96c-57.06,62.29-117.37,121.98-176.47,182.53-10.27,29.64-19.9,59.72-28.06,89.93,28.8-11.26,55.11-28.12,83.48-40.51,7.39-11.83,18.17-20.79,27.69-30.81ZM397.31,316.43c-14.16,4.52-29.52,8.19-44.55,8.04-6.49-.07-17.25-1.11-23.68-2.31-9.01-1.69-17.71-6.71-26.78-7.72v18h95v-16ZM202.63,419.11c1.12,1.23,3.45,2.15,5.14,2.36,5.17.63,35.75.71,39.59-.49,6.94-2.17,8.3-21.93-1.61-23.5-11.65-1.84-28.33.89-40.5.39-6.91,1.91-6.19,17.35-2.63,21.24ZM287.62,435.12c1.72,1.9,6.54,3.34,9.15,3.34l159.06-.02c13.6-1.64,16.08-21.37,2-24.05l-163.02.02c-10.25-.16-12.93,14.38-7.19,20.7ZM229.31,544.43h-23.5c-.45,0-4.16,2.75-4.57,3.43-1.98,3.3-2.33,20.66,3.08,23.05,12.65-.33,29.32,2.2,41.54.57,2.96-.39,4.09-1.87,5.92-4.08l.54-100.46c-1.23-8.07,10.53-27.38,9.99-32.99-.78-8.18-11.22-.22-14.02,1.96-3.74,2.91-13.89,15.03-16,15.99-2.28,1.04-14.6,1.02-16.55-.41s-6.43-8-9.42-10.58c-2.59-2.24-11.5-9.49-14.88-7.36-4.24,2.67,4.91,19.57,6.16,24.09,5.59,20.31.99,41.97,3.23,62.77,1.18,1.45,3.61,4,5.57,3.57,5.78-1.28,15.92-14.11,22.92-15.55v36ZM435.31,471.43h-141.5c-.44,0-5.65,2.7-6.2,3.3-5.51,5.94-3.77,17.68,4.41,20.49l117.85.27c1.6.2,2.65-.23,3.99-1.01,3.32-1.91,11.12-12.1,14.42-15.58,2.51-2.65,5.87-4.2,7.03-7.48ZM378.31,534.43h-85.5c-1.21,0-6.15,4.78-6.74,6.26-2.41,5.99-.73,15.46,6.22,17.27l78.02.47c-.09-8.86,4.53-16.32,8.01-23.99ZM240.03,583.63c-2.78.63-6.16,4.65-8.23,6.79-4.04,4.14-24.94,26.46-26.33,29.67-3.85,8.9,3.15,16.02,11.34,10.34,4.48-3.1,28.32-28.88,31.33-33.67,4.4-6.99-.47-14.86-8.11-13.13ZM357.31,597.43h-63.5c-3.64,0-8.01,4.64-8.54,8.45-1.22,8.72,1.26,14.71,10.49,15.6,16.72,1.61,35.94-1.35,52.94.01l8.61-24.06ZM429.31,621.43h30.5c5.73,0,11.19-15.03,4.93-18.99l-35.43,18.99Z"/>
        <path class="cls-2" d="M247.31,297.43c6.99,0,14.01,0,21,0l-.5-5.99c4.03,8.42,10.82,14.48,18.5,19.5v43.5h128v-42.5c7.34-5.29,13.82-10.57,18.5-18.5,1.22.46.06,3.56.49,4,.69.72,17.11-.02,20.01,0,17.91.1,40.23-1.7,57.49,0,10.95,1.08,20.23,8.08,21.51,19.49,1.44,12.83.91,38.24,0,51.5-.13,1.9.51,3.88-.95,5.55-9.68,9.66-19.19,19.53-28.62,29.43-1.32,1.38-1.39,4.55-3.45,2.51l1.01-36.49h-56v-16c16.95-2.5,35.72,2.03,52.55.05,1.01-.12,3.45-.46,3.45-1.55v-19c0-.99.59-5.5-1.5-5.5h-69.5v36.5c0,.36-1.87,5.9-2.26,6.74-2.54,5.54-7.55,9.04-13.31,10.69l-124.98.1c-9.08.39-18.46-10.02-18.46-18.54v-35.5c-1.4-.58-3,1-3.5,1h-36c-.7,0-1.35-1.67-1.5-2.5-1-5.49.28-14.88.04-21.04-.08-1.97-1.67-6.33-.82-7.28.39-.44,1.71-.08,1.78-.18h17Z"/>
        <path class="cls-2" d="M229.31,544.43v-36c-7,1.44-17.14,14.27-22.92,15.55-1.96.43-4.39-2.12-5.57-3.57-2.24-20.8,2.36-42.46-3.23-62.77-1.24-4.52-10.4-21.42-6.16-24.09,3.38-2.13,12.3,5.12,14.88,7.36,2.98,2.58,7.52,9.2,9.42,10.58s14.27,1.45,16.55.41c2.12-.96,12.27-13.08,16-15.99,2.8-2.18,13.24-10.14,14.02-1.96.54,5.61-11.22,24.92-9.99,32.99l-.54,100.46c-1.83,2.2-2.97,3.68-5.92,4.08-12.22,1.63-28.89-.9-41.54-.57-5.42-2.39-5.07-19.75-3.08-23.05.41-.68,4.12-3.43,4.57-3.43h23.5Z"/>
        <path class="cls-2" d="M287.62,435.12c-5.73-6.31-3.06-20.85,7.19-20.7l163.02-.02c14.08,2.68,11.6,22.41-2,24.05l-159.06.02c-2.61,0-7.43-1.44-9.15-3.34Z"/>
        <path class="cls-2" d="M435.31,471.43c-1.16,3.28-4.51,4.83-7.03,7.48-3.3,3.48-11.1,13.67-14.42,15.58-1.35.77-2.39,1.21-3.99,1.01l-117.85-.27c-8.18-2.81-9.92-14.55-4.41-20.49.55-.59,5.75-3.3,6.2-3.3h141.5Z"/>
        <path class="cls-2" d="M378.31,534.43c-3.48,7.67-8.09,15.13-8.01,23.99l-78.02-.47c-6.95-1.81-8.63-11.28-6.22-17.27.59-1.47,5.53-6.26,6.74-6.26h85.5Z"/>
        <path class="cls-2" d="M357.31,597.43l-8.61,24.06c-17-1.36-36.22,1.6-52.94-.01-9.23-.89-11.71-6.88-10.49-15.6.54-3.82,4.91-8.45,8.54-8.45h63.5Z"/>
        <path class="cls-1" d="M230.31,297.43c3.21-4.72-4.27-25.48-8.44-30.04-2.02-2.22-6.57-4.76-7.64-6.39-1.91-2.92-.84-21.92-.89-27.11-.04-4.38.01-8.57,0-12.92-.06-18.84-.05-37.7-.04-56.54l2,1.48c.49,15.31-.65,30.76-.04,46.06.42,10.67.56,22.03,5.33,31.67,8.26,16.67,26.35,26.25,44.71,26.79.71,1.6-1.13,6-2.51,6h-15.5v21h-17Z"/>
        <path class="cls-2" d="M202.63,419.11c-3.56-3.89-4.28-19.32,2.63-21.24,12.16.5,28.84-2.24,40.5-.39,9.9,1.57,8.55,21.32,1.61,23.5-3.84,1.2-34.42,1.12-39.59.49-1.69-.21-4.02-1.13-5.14-2.36Z"/>
        <path class="cls-2" d="M240.03,583.63c7.64-1.73,12.51,6.14,8.11,13.13-3.01,4.79-26.85,30.56-31.33,33.67-8.19,5.68-15.19-1.44-11.34-10.34,1.39-3.21,22.29-25.53,26.33-29.67,2.08-2.13,5.45-6.16,8.23-6.79Z"/>
        <path class="cls-2" d="M429.31,621.43l35.43-18.99c6.26,3.95.8,18.99-4.93,18.99h-30.5Z"/>
        <g>
          <path class="cls-2" d="M169.31,285.93c.28-1.46,3.82-7.52,5.02-8.98,2.41-2.92,8.51-5.54,8.98-8.02l-.04-121.04,2.11-9.85c-.23-1.43-22.03-6.78-25.59-9.59-6.32-4.99-3.93-12.91,2.27-16.77,20.09-12.51,51.34-23.62,73.61-34.39,28.8-13.93,57.07-29.37,85.96-43.04,6.62-3.13,21.58-10.68,28.22-10.85s24.5,9.16,31.49,12.5c47.28,22.61,100.15,47.22,145.85,72.15,6.96,3.8,19.15,9.81,10.02,18.77-5.16,5.06-46.99,15.99-57.41,19.59-36.29,12.5-71.21,28.73-107.23,41.77-12.83,4.64-21.07,8.78-35.2,4.7-21.47-6.2-47.29-19.74-68.78-28.22-15.72-6.2-32.04-11.12-47.7-17.3-1.04-.41-2.41-.37-2.56-1.92,26.03-5.06,51.82-11.33,77.77-16.77,7.87-1.65,18-4.06,27.26-5.79,6.87-1.28,12.16-2.71,19.46-2.45,4.84.17,6.57-.05,11.76-1.25,12.77-2.93,29.87-9.38,38.77-19.23,11.67-12.9,1.06-20.55-11.59-24.46-21.99-6.81-54.53-6.47-72.91,8.97-1.97,1.65-10.87,10.31-8.52,12.97,7.7-.71,28-9.45,33.71-3.72,3.77,3.78,2.37,10.19-2.44,12.5-41.77,9.23-83.91,16.95-125.34,27.66-4.42,2.28-7.42,7.18-7.94,12.06l-.04,123.83c4.99,1.72,15.04,10.89,15.04,16.17v48.5h-44v-48.5Z"/>
          <path class="cls-2" d="M466.31,170.43v52.5c0,18.09-20.56,28.78-36.54,27.53-4.32-.34-10.89-3.7-13.74-2.87-1.76.51-4.78,4.77-6.8,6.25-23.39,17.07-87.81,35.88-109.44,10.61-1.5-1.75-2.29-4.85-2.51-5.02-.94-.71-18.68,8.32-15.96-8.01-15.51,2.44-31.05.87-41.52-11.98-1.81-2.23-6.49-10.1-6.49-12.51v-56.5c1.9-.19,3.55.62,5.27,1.23,30.99,10.99,64.98,30.34,95.77,39.23,17.87,5.16,25.84,1.32,42.23-4.69,30.17-11.06,59.3-25.32,89.73-35.77Z"/>
          <path class="cls-1" d="M397.31,316.43v16h-95v-18c9.07,1.01,17.76,6.03,26.78,7.72,6.43,1.2,17.19,2.25,23.68,2.31,15.03.15,30.39-3.52,44.55-8.04Z"/>
        </g>
      </g>
      <path class="cls-2" d="M72.02,322.98c2.67-.17,8.25.4,10.34-1.01,1-.68,8.76-18.83,10.17-21.86,1.02-2.19.24-5.49,3.83-3.22,2.56,1.62,9.18,23.36,11.95,25.05s23.88.49,26,3.51c.62.89-.34,2.6-.94,3.53-2.74,4.23-17.24,14.42-17.89,17.15,1.21,9.59,6.27,18.52,5.84,28.3-2.94,2.94-23.08-12.86-26.49-12.97-3.68-.12-22.92,15.99-26.5,12.96l6.06-28.31c-4.65-4.63-14.79-11.99-18.12-17.14-.6-.93-1.56-2.65-.95-3.54.27-.4,8.23-1.96,9.5-2.01"/>
      <path class="cls-2" d="M105.45,415.35c.3.22,5.34-1.04,7.37-.98,3.65.1,6.91,1.04,10.5,1.07,2.65,2.56-13.25,13.96-13.77,16.61-.83,4.23,5.14,15.11,3.76,20.38-1.88,1.97-16.93-10-19.51-10.01-1.71,0-14.43,10.74-18.48,10.01-1.34-1.39,3.99-16.31,2.81-20.28-.83-2.8-15.87-13.64-12.82-16.71l18.85-1.17,9.67-19.85c1.73-.17,1.99,1.25,2.7,2.31,2.34,3.46,6.83,17.12,8.93,18.62Z"/>
      <path class="cls-2" d="M137.48,236.26c1.78,1.08,15.88,1.05,16.84,2.18,1.48,4.09-11.81,12.66-12.05,13.7-1.03,4.47,4.68,13.93,3.04,19.29-.58.8-15.16-8.74-17.67-8.78-2.81-.05-11.88,9.09-16.31,7.78-.7-.61,3.93-14.64,3.03-18.28-.32-1.31-13.37-8.92-11.04-13.71,3.94-.98,14.34-.28,16.98-2.53,1.8-1.54,5.85-15.58,7.04-16.47s2.24.87,2.83,1.65c1.9,2.52,6.6,14.74,7.32,15.18Z"/>
      <path class="cls-2" d="M121.93,510.06c-1,1.23-3.06,1.38-3.36,4-.33,2.91,3.07,8.56,1.72,12.37-.38.52-10.19-5.92-11.48-5.97-2.96-.1-7.61,5.89-11.5,4.96-1.16-3.45,1.78-9.64.88-12.32-.54-1.59-7.36-4.92-7.86-8.18.06-2.28,9.45-.87,11.95-3.02.93-.79,3.43-7.47,4.55-9.5.62-1.13-.07-2.44,1.97-1.97,2.58,1.85,4.53,10.33,6.51,11.5,1.55.92,11.01.82,10.99,2.99-1.86,1.41-2.94,3.39-4.36,5.13Z"/>
      <path class="cls-2" d="M162.31,182.43c1.42,1.58-6.21,6.67-6.81,8.71-.87,2.93.93,7.29,1.14,10.49.04.66,1.02,2.72-.82,2.77-1.03.03-9.26-5.74-11-5.63-.83.05-9.89,6.46-10.5,5.65-1.28-3.48,2.49-9.77,1.85-12.32-.48-1.93-5.45-3.86-6.9-6.14-3.15-4.93.55-2.69.83-2.83.23-.12.2-1.53.89-1.69,2.22-.51,6.79.68,8.17-.19.73-.46,4.11-10.78,5.66-10.82,3.07,1.52,4.57,9.36,6.48,10.5s8.22.24,11.01,1.49Z"/>
      <g>
        <path class="cls-2" d="M477.96,558.08c-9.52,10.02-20.29,18.99-27.69,30.81-28.36,12.4-54.68,29.25-83.48,40.51,8.16-30.21,17.79-60.29,28.06-89.93,59.1-60.55,119.41-120.24,176.47-182.53l-2.08-4.96c18.92-22.41,41.45-42.04,61.05-64.07,18.38-17.92,41.74-1.5,54.98,14.04,20.45,24,4.76,39.2-11.94,57-63.51,67.69-131.38,131.75-195.38,199.13ZM635.36,308.4c.93.67,6.84-2.1,9.41-2.02,6.56.2,15.52,8.49,19.93,13.15,3.01,3.18,7.57,13.65,12.57,11.42,12.23-5.46-5.1-22.96-10.49-27.5-7.52-6.33-16.94-12.68-26.82-6.88-3.21,1.89-7.94,9.41-4.6,11.82ZM617.66,346.08c9.32,8.85,19.29,17.06,28.29,26.28,13.29-8.42,7.4-10.69-1.11-18.95-10.81-10.5-22.41-20.39-33.5-30.6-2.16-1.02-9.15,6.87-8.95,7.99.08.46,5.35,6.65,5.9,7.16,2.94,2.71,5.96,4.88,9.38,8.12ZM591.81,340.44l-8.48,8.48,44.48,43.48c1.99-2.92,9.77-7.2,8.03-10.96l-44.03-41ZM589.96,399.08c1.6-1.72,11.04-11.48,11.2-12.29.35-1.81-5.94-10.21-8.38-7.42l-161.47,164.56c-3.41,3.97-1.59,9.67-1.99,14.5l7.05-2.44c50.22-53.14,103.84-103.52,153.59-156.91ZM433.31,571.43c-.72-.62-16.32.47-19,0,.87-2.75,1.86-15.33.86-16.86-.24-.37-6.99-2.87-8.21-3.31-1.04-.38-1.01-1.47-2.14.18-4.19,16.36-11.57,33.42-15.32,49.7-.35,1.51-.8,2.66,1.31,2.31l44.53-21.53c1.34-.78-1.61-10.12-2.03-10.49Z"/>
        <path class="cls-3" d="M589.96,399.08c-49.75,53.39-103.38,103.77-153.59,156.91l-7.05,2.44c.4-4.83-1.42-10.52,1.99-14.5l161.47-164.56c2.43-2.79,8.73,5.61,8.38,7.42-.16.82-9.6,10.58-11.2,12.29Z"/>
        <path class="cls-3" d="M433.31,571.43c.42.36,3.37,9.7,2.03,10.49l-44.53,21.53c-2.11.35-1.65-.8-1.31-2.31,3.75-16.28,11.13-33.34,15.32-49.7,1.14-1.66,1.1-.57,2.14-.18,1.22.45,7.97,2.94,8.21,3.31.99,1.53,0,14.11-.86,16.86,2.68.47,18.28-.62,19,0Z"/>
        <path class="cls-1" d="M591.81,340.44l44.03,41c1.74,3.76-6.04,8.05-8.03,10.96l-44.48-43.48,8.48-8.48Z"/>
        <path class="cls-3" d="M617.66,346.08c-3.42-3.24-6.44-5.41-9.38-8.12-.55-.51-5.82-6.7-5.9-7.16-.19-1.12,6.8-9.01,8.95-7.99,11.09,10.21,22.69,20.1,33.5,30.6,8.51,8.26,14.4,10.53,1.11,18.95-8.99-9.22-18.97-17.43-28.29-26.28Z"/>
        <path class="cls-1" d="M635.36,308.4c-3.34-2.41,1.39-9.93,4.6-11.82,9.88-5.8,19.3.54,26.82,6.88,5.39,4.54,22.72,22.04,10.49,27.5-4.99,2.23-9.56-8.24-12.57-11.42-4.41-4.67-13.37-12.95-19.93-13.15-2.57-.08-8.48,2.69-9.41,2.02Z"/>
      </g>
      <path class="cls-2" d="M610.31,247.43c.73.79-4.15,6.23-5.01,7.2-1.8,2.01-11.52,10.32-11.84,11.52-1.08,4.05,5.68,19.68,4.85,25.27-1.64,1.66-20.26-10.34-23.49-11.67-3.02,1.36-20.75,13.47-22.5,11.67-1.08-5.4,5.71-20.61,4.84-24.3-.63-2.66-13.6-12.6-15.89-16.15-.78-1.21-1.26-2.01-.95-3.54,7.84-1.64,15.86-2.05,23.84-2.18.95-.6,7.18-17.76,8.86-20.6,1.42-2.39,3.63-1.61,5.19.36,2.28,2.89,7.21,18.79,9.08,19.91l23.02,2.49Z"/>
      <path class="cls-2" d="M567.2,524.54c.62.39,4.37,11.35,6.1,12.4,2.68,1.62,11.68,1.1,12.99,2.99,1.3,1.89-9.37,8.2-9.74,10.11-.46,2.37,2.91,10.63,2.73,12.9-.04.53-1,1.3-2.01,1.06-2.4-.57-11.34-6.64-12.32-6.47-1.43.26-7.97,7.15-11.64,5.89-1.19-4.29,2.89-10.63,2.04-14.29-.16-.69-9.88-6.97-9.05-10.7,2.83-2.51,11.37,1.1,15.85-7.65,1.24-2.42,1.74-8.34,5.04-6.24Z"/>
      <path class="cls-2" d="M590.86,488.82c1.9-.12,4.95,9.88,7.29,11.33s7.31-.66,10.16.28c1.36,4.51-7.31,7.23-7.77,9.6-.4,2.05,2.85,11.28,1.77,12.39-3.86.62-8.35-4.74-11.58-5.01-2.5-.21-3.86,2.2-6.14,2.81-8.63,2.3-2.7-5.91-3.44-9.1-.48-2.05-7.53-6.83-7.84-8.21-.92-4.18,9.21-1.62,10.83-2.65.33-.21,2.65-5.82,3.28-7s2.39-4.38,3.42-4.44Z"/>
    </g>
  </g>
</svg>